<?xml version="1.0" standalone="no"?>
<!DOCTYPE svg PUBLIC "-//W3C//DTD SVG 20010904//EN"
 "http://www.w3.org/TR/2001/REC-SVG-20010904/DTD/svg10.dtd">
<svg version="1.0" xmlns="http://www.w3.org/2000/svg"
 width="1280.000000pt" height="1099.000000pt" viewBox="0 0 1280.000000 1099.000000"
 preserveAspectRatio="xMidYMid meet">
<metadata>
Created by potrace 1.15, written by Peter Selinger 2001-2017
</metadata>
<g transform="translate(0.000000,1099.000000) scale(0.100000,-0.100000)"
fill="#000000" stroke="none">
<path d="M5920 10931 c0 -32 7 -281 16 -552 23 -681 26 -2339 4 -2339 -4 0
-18 8 -31 19 -13 10 -98 69 -189 131 -173 118 -295 215 -328 260 -18 24 -21
55 -31 396 -14 455 -34 1475 -35 1761 -1 199 -2 213 -22 240 -34 46 -103 44
-127 -5 -35 -68 -28 -369 19 -882 14 -143 18 -293 18 -660 1 -451 0 -481 -22
-598 -28 -157 -30 -161 -68 -129 -70 59 -109 175 -123 368 -8 105 -24 1101
-27 1634 -1 201 1 191 -29 211 -25 16 -27 16 -50 -6 -14 -13 -30 -40 -35 -60
-10 -38 2 -528 20 -814 7 -107 7 -252 0 -440 -11 -320 -12 -614 -1 -698 l7
-57 -26 5 c-185 42 -358 90 -372 103 -4 4 -1 72 7 151 29 289 39 643 26 950
-6 157 -11 371 -11 476 0 183 -1 193 -23 225 -29 44 -70 47 -100 7 -19 -26
-20 -40 -18 -360 1 -183 4 -342 6 -353 2 -11 9 -155 15 -320 9 -217 9 -342 1
-453 -9 -129 -33 -291 -46 -313 -2 -3 -37 3 -77 14 -139 36 -465 34 -565 -4
-15 -6 -30 -10 -31 -10 -2 1 -3 70 -3 154 1 83 -4 285 -9 447 -6 162 -13 416
-15 564 -3 268 -3 269 -27 293 -30 29 -48 24 -82 -26 -48 -68 -53 -130 -28
-314 18 -136 22 -226 27 -562 2 -220 10 -591 16 -825 16 -605 -1 -1255 -40
-1568 -7 -55 -6 -86 4 -120 36 -126 40 -197 35 -667 -10 -941 -7 -1337 13
-1483 10 -74 17 -135 15 -137 -20 -17 -108 -50 -217 -80 -144 -39 -233 -74
-247 -96 -5 -8 -10 -79 -10 -159 -1 -102 -6 -163 -18 -204 -62 -219 -202 -323
-411 -306 -86 7 -123 -9 -177 -80 -41 -52 -94 -83 -136 -78 l-27 3 -17 270
c-51 824 -94 1868 -118 2875 -6 239 -15 617 -20 840 -5 223 -15 703 -22 1068
-6 364 -15 662 -20 662 -16 0 -76 -61 -88 -89 -7 -19 -10 -56 -6 -108 14 -182
17 -572 7 -749 -32 -552 -35 -694 -23 -1114 19 -637 39 -1076 87 -1845 50
-809 69 -1319 58 -1585 l-6 -148 -55 -11 c-125 -25 -240 -3 -291 54 -27 31
-28 36 -40 221 -39 634 -51 1508 -44 3294 6 1570 7 1554 -43 1601 -32 30 -48
21 -90 -49 -59 -97 -65 -201 -34 -547 6 -62 15 -826 21 -1735 5 -894 12 -1647
14 -1675 2 -27 9 -174 15 -325 7 -151 17 -354 24 -450 7 -96 11 -178 9 -183
-2 -4 -25 -7 -49 -7 -25 0 -105 -14 -177 -32 -105 -25 -155 -31 -243 -32 -106
-1 -112 0 -147 27 -50 38 -74 88 -92 192 -41 235 -39 566 5 1149 11 143 23
332 27 421 l6 162 -28 59 c-28 58 -29 63 -33 269 -2 116 4 451 13 745 16 492
15 670 -2 914 l-6 90 -20 -25 c-34 -41 -88 -167 -113 -265 -56 -221 -55 -349
21 -2529 8 -231 18 -576 21 -768 l7 -347 -24 0 c-13 0 -62 -16 -109 -36 -102
-43 -207 -57 -229 -30 -7 9 -22 16 -31 16 -13 0 -24 15 -37 48 -15 39 -17 66
-13 162 12 272 3 810 -19 1155 -15 244 -21 433 -20 625 1 151 2 309 1 350 -2
79 -21 166 -37 164 -19 -1 -53 -85 -66 -157 -9 -56 -9 -103 0 -212 6 -77 11
-262 11 -412 0 -149 9 -549 21 -890 23 -699 23 -697 -41 -764 -24 -25 -46 -39
-57 -37 -10 2 -30 26 -45 53 -46 85 -51 147 -44 474 8 307 2 385 -31 461 -16
35 -16 35 -39 -140 -43 -329 -42 -589 3 -820 13 -72 21 -91 37 -96 38 -12 112
-7 171 14 70 24 82 20 122 -40 27 -40 32 -43 88 -50 77 -9 101 -4 199 43 116
56 152 52 286 -32 128 -81 184 -84 375 -19 126 42 206 54 269 39 44 -11 61
-23 133 -98 l82 -86 128 -1 c126 -1 130 -1 253 -46 69 -26 144 -52 168 -59 36
-11 42 -16 42 -40 0 -16 8 -45 17 -65 l18 -36 -35 -29 c-60 -51 -187 -105
-420 -179 -124 -40 -254 -87 -290 -105 -128 -64 -224 -161 -201 -203 16 -29
96 -99 140 -121 23 -12 41 -23 41 -25 0 -2 9 -55 19 -118 40 -232 44 -310 46
-878 1 -382 5 -563 12 -581 10 -22 26 -30 110 -54 96 -27 160 -35 181 -21 13
8 27 54 49 169 14 69 17 163 17 577 1 439 3 503 19 565 26 102 25 101 89 82
29 -9 108 -26 175 -37 149 -25 213 -45 252 -79 l31 -26 16 -705 c9 -388 18
-706 19 -708 2 -2 35 -14 75 -28 82 -27 136 -30 184 -10 28 12 35 21 45 62 24
106 32 240 41 710 9 466 17 607 43 753 11 57 16 67 44 84 18 10 72 25 120 34
123 21 143 33 143 86 0 58 -39 137 -86 174 -22 17 -82 52 -134 78 -52 26 -110
58 -128 72 -30 22 -32 27 -19 40 8 8 34 19 58 24 50 12 69 25 69 49 0 20 -52
30 -309 60 -252 29 -345 55 -421 119 l-25 20 26 1 c71 1 405 -69 788 -164 187
-47 238 -56 313 -56 96 0 139 -14 159 -52 11 -20 10 -21 -34 -15 -25 4 -92 20
-148 37 -56 16 -133 33 -172 37 l-69 6 7 -34 c9 -40 28 -79 101 -209 30 -55
61 -125 70 -163 l17 -67 -33 -125 -33 -126 16 -142 c9 -78 19 -169 23 -202 7
-60 22 -1506 16 -1515 -2 -2 -6 1 -10 7 -9 15 -32 19 -64 10 -29 -8 -42 -43
-42 -119 -1 -38 26 -78 50 -78 17 0 40 -45 49 -95 10 -55 31 -92 56 -100 32
-10 128 4 182 28 33 14 56 32 73 58 23 37 67 59 116 59 40 0 98 32 105 58 12
50 -3 57 -140 62 -88 3 -130 9 -139 19 -11 11 -8 12 19 6 46 -9 131 18 175 57
l38 33 24 240 c14 132 41 389 60 570 19 182 38 371 42 422 l6 91 74 36 c113
57 114 58 114 255 0 91 7 243 15 336 8 94 15 211 15 260 l0 90 89 33 c52 18
108 32 135 32 l46 0 -3 -397 c-3 -516 5 -584 81 -671 28 -31 30 -32 89 -26
l61 7 25 56 c33 71 43 108 57 201 12 86 17 330 11 535 -5 152 3 195 46 253 13
18 35 39 48 48 21 14 26 14 54 0 16 -9 40 -16 53 -16 l23 0 0 -851 c0 -745 -2
-851 -15 -859 -8 -4 -51 -13 -95 -20 -210 -30 -255 -63 -210 -150 30 -59 79
-64 193 -21 100 38 122 44 122 34 -1 -14 -33 -48 -84 -89 -55 -44 -76 -84 -76
-145 l0 -41 43 7 c134 21 273 67 477 157 231 103 302 129 390 144 156 27 223
77 236 177 6 40 4 47 -17 60 -13 8 -46 17 -74 21 -93 12 -95 39 -15 159 63 94
162 187 338 318 75 56 152 114 171 128 l34 26 -6 -105 c-6 -119 -17 -162 -52
-214 l-24 -36 34 -14 c44 -19 61 -47 79 -130 18 -87 41 -118 94 -130 32 -7 48
-5 79 10 32 16 44 32 79 103 43 90 81 131 118 131 l24 0 -26 62 c-34 82 -41
228 -18 373 9 55 23 156 31 225 18 141 -2 110 159 244 39 32 167 146 283 253
117 108 222 203 234 211 20 14 30 14 103 -1 261 -54 579 -75 861 -57 104 6
244 19 310 29 l120 17 18 -22 c10 -13 34 -25 56 -29 22 -3 46 -14 54 -23 24
-27 59 -315 117 -947 37 -407 54 -559 87 -789 20 -145 23 -186 14 -215 -6 -20
-18 -65 -26 -100 -7 -35 -19 -69 -24 -74 -17 -17 -13 -24 17 -32 15 -3 37 -16
50 -27 19 -19 22 -32 22 -97 1 -99 12 -114 82 -114 97 0 136 35 205 183 25 54
53 97 76 117 l37 32 -26 26 -26 26 7 157 c4 86 18 243 31 347 62 490 105 1083
102 1395 l-3 215 33 68 c48 99 130 176 307 292 158 104 238 172 287 243 l30
44 -11 531 c-6 293 -16 795 -21 1117 -18 1050 -30 1640 -40 1930 -5 157 -15
436 -21 620 -9 266 -12 1015 -7 1876 1 80 -16 126 -58 164 -55 48 -60 43 -67
-67 -27 -399 -19 -900 28 -1913 13 -289 30 -660 36 -825 14 -348 17 -1181 5
-1369 l-8 -130 -35 70 c-112 222 -326 450 -657 700 l-199 149 4 535 c6 763 5
2315 -1 2855 -5 441 -6 462 -26 505 -25 54 -66 93 -113 109 -54 18 -60 15 -55
-21 2 -18 11 -148 19 -288 25 -412 35 -1186 27 -1985 -4 -407 -4 -938 -1
-1180 3 -242 5 -441 4 -443 -8 -10 -444 282 -460 307 -6 10 -10 118 -10 271 1
246 2 265 43 540 57 391 66 536 66 1005 -1 340 -6 475 -34 900 -22 325 -34
589 -35 755 -1 272 -4 292 -52 342 -25 26 -27 26 -55 12 -18 -9 -37 -32 -48
-57 -18 -40 -18 -66 -9 -542 5 -275 14 -585 19 -690 28 -552 23 -1435 -10
-1815 -20 -221 -61 -523 -85 -629 l-6 -24 -30 28 c-16 16 -39 54 -51 84 -23
55 -23 63 -22 446 1 339 5 426 28 665 57 606 74 1005 78 1870 2 531 1 590 -15
642 -19 64 -66 119 -116 136 l-31 11 0 -347 c0 -444 -14 -1042 -46 -1942 -13
-393 -27 -880 -31 -1082 -3 -203 -10 -368 -15 -368 -5 0 -30 11 -56 24 -26 13
-121 54 -212 91 -327 133 -350 144 -350 174 0 14 -11 301 -24 636 -30 730 -41
1054 -61 1730 -20 689 -21 754 -11 950 8 147 7 178 -8 228 -18 62 -73 129
-116 140 l-23 6 6 -582 c4 -320 11 -708 17 -862 21 -594 49 -1525 56 -1864 l7
-353 -24 7 c-62 19 -172 69 -209 96 l-41 30 7 142 c11 217 10 439 -5 1067 -15
614 -10 891 26 1315 11 135 17 317 17 560 1 350 0 361 -21 407 -29 63 -63 80
-101 51 -33 -25 -38 -59 -19 -141 12 -52 13 -161 6 -684 -5 -343 -13 -828 -18
-1078 -6 -250 -13 -619 -16 -820 -3 -201 -8 -461 -11 -577 -6 -197 -7 -212
-23 -203 -10 5 -87 30 -172 55 -153 47 -272 99 -305 136 -25 28 -33 155 -34
554 0 508 24 896 111 1745 16 162 32 316 36 342 4 37 0 60 -17 100 -24 56 -24
29 -4 409 6 113 5 130 -14 172 -19 43 -75 93 -92 82 -8 -5 -24 -79 -41 -180
-7 -45 -12 -255 -13 -585 -2 -448 -5 -541 -24 -715 -83 -780 -97 -1001 -81
-1305 12 -243 9 -337 -17 -449 -15 -70 -16 -72 -38 -58 -11 8 -77 45 -145 83
-68 38 -143 86 -167 107 l-44 39 0 666 c0 923 -30 2176 -53 2257 -21 74 -44
113 -77 130 -52 27 -60 22 -60 -44z m-1640 -2171 c287 -50 560 -153 863 -327
152 -87 282 -173 637 -422 544 -381 726 -475 1464 -758 678 -258 859 -336
1212 -518 378 -194 696 -377 1065 -614 195 -125 197 -127 345 -285 248 -264
352 -408 426 -588 60 -149 73 -249 39 -323 -44 -98 -70 -74 -78 73 -5 90 -9
103 -51 185 -218 428 -622 814 -1192 1142 -302 174 -725 374 -1025 486 -105
39 -265 112 -420 190 -315 160 -397 194 -672 279 -384 119 -484 166 -706 328
-67 49 -187 133 -267 187 -80 54 -210 144 -290 200 -473 332 -736 485 -955
559 -127 43 -257 64 -484 81 -217 15 -342 35 -368 56 -19 16 -9 58 20 82 20
16 37 18 167 13 80 -3 201 -15 270 -26z m-509 -337 c106 -171 362 -557 469
-708 l93 -130 -2 -209 c-1 -114 -4 -213 -6 -220 -14 -48 -15 -66 0 -66 22 0
18 -20 -11 -64 -24 -35 -26 -45 -21 -105 3 -36 20 -138 38 -226 30 -150 33
-178 39 -455 6 -247 11 -312 29 -400 29 -137 26 -283 -7 -347 l-22 -42 48 -8
c94 -16 179 -5 296 36 90 31 210 73 316 109 26 8 -30 20 -104 21 -51 1 -103
-8 -198 -35 -72 -20 -133 -32 -138 -28 -9 11 -45 240 -65 419 -14 127 -38 468
-50 730 -8 167 -34 540 -44 633 -4 40 -4 72 0 72 13 0 167 -179 254 -295 46
-60 173 -244 283 -408 111 -164 233 -340 272 -391 69 -93 210 -255 267 -308
l29 -28 47 113 c54 129 143 377 213 590 27 81 50 143 52 138 10 -31 -123 -469
-234 -766 -108 -291 -369 -928 -382 -933 -28 -9 -10 63 40 158 53 102 70 180
54 246 l-7 27 -103 -6 c-130 -8 -277 -37 -448 -86 -165 -49 -318 -87 -379 -96
l-46 -7 -21 -92 c-27 -118 -49 -259 -58 -366 l-6 -85 -53 3 c-35 3 -95 -6
-177 -26 -67 -17 -136 -32 -153 -34 -25 -2 -34 -12 -58 -58 -37 -73 -56 -90
-107 -97 l-43 -6 6 94 c30 439 38 580 48 899 12 371 8 1011 -11 1725 -14 544
-24 1235 -18 1235 3 0 39 -53 79 -117z m2289 -1156 c14 -26 13 -32 -35 -126
-27 -55 -53 -100 -57 -100 -16 -2 -7 57 22 139 17 46 30 93 30 103 0 25 21 17
40 -16z m-299 -1653 c7 -37 33 -88 74 -144 49 -67 73 -121 81 -178 7 -55 9
-52 -64 -67 -19 -4 -79 -24 -135 -45 -101 -38 -207 -61 -207 -44 1 36 38 156
79 253 27 64 57 143 66 176 9 33 18 65 19 70 2 6 21 10 42 9 34 -1 39 -4 45
-30z m-620 -309 c-2 -44 -5 -83 -8 -87 -2 -5 -33 -8 -69 -8 -44 0 -64 -4 -64
-12 0 -8 -7 -5 -15 6 -32 42 -11 112 46 160 25 22 40 26 73 24 l41 -3 -4 -80z
m-342 -26 c35 -12 41 -41 16 -75 -8 -10 -15 -31 -15 -45 0 -25 -3 -26 -77 -33
-108 -11 -124 -10 -135 6 -13 20 -2 87 19 110 39 44 124 61 192 37z m1701 -34
c52 -9 187 -38 300 -65 113 -26 230 -53 260 -59 139 -27 596 -88 1105 -146
871 -100 1393 -167 1514 -194 l36 -8 -37 -17 c-55 -24 -130 -20 -242 14 -108
33 -309 61 -1081 150 -716 83 -1243 154 -1777 241 l-307 50 -83 -21 c-46 -12
-159 -43 -253 -70 -255 -73 -435 -119 -429 -109 3 5 10 9 15 9 6 0 103 40 217
89 295 126 376 148 552 150 63 0 158 -6 210 -14z m-1390 -85 c25 -25 25 -33
-1 -87 -13 -27 -43 -60 -79 -88 -32 -25 -61 -45 -63 -45 -3 0 -10 14 -17 30
-10 24 -10 37 -1 56 13 30 121 154 133 154 4 0 17 -9 28 -20z m-352 -147 c8
-21 16 -52 19 -69 5 -31 3 -33 -53 -54 -91 -33 -110 -35 -123 -12 -14 26 -14
112 -1 146 9 24 14 26 77 26 l68 0 13 -37z m425 -60 c4 -3 -3 -21 -14 -39 -11
-19 -18 -38 -14 -44 4 -6 -22 -10 -74 -10 -110 0 -107 21 7 50 23 6 48 20 55
30 12 20 28 25 40 13z m1082 -43 c55 -21 58 -24 37 -33 -23 -11 -102 -2 -221
24 -51 11 -53 12 -35 26 28 21 144 12 219 -17z m717 -15 c355 -31 659 -72
1493 -199 520 -79 780 -115 1015 -141 201 -22 202 -22 189 -46 -6 -11 -30 -29
-55 -39 -46 -20 -53 -35 -33 -72 10 -19 9 -20 -7 -13 -11 4 -40 10 -66 12 -65
7 -63 45 2 55 33 5 -105 50 -237 77 -89 19 -559 81 -606 81 -16 0 -17 -3 -7
-14 21 -26 93 -45 207 -55 62 -6 127 -17 145 -24 32 -14 75 -53 67 -61 -2 -2
-85 9 -184 24 -99 15 -226 33 -282 40 -97 12 -103 14 -103 35 0 26 17 35 68
35 54 0 28 17 -53 34 -64 14 -71 14 -82 -1 -7 -9 -13 -34 -13 -55 0 -35 -2
-38 -22 -33 -61 13 -436 74 -938 151 -579 88 -1028 161 -1045 169 -15 7 245
-4 355 -16 161 -16 300 -38 691 -105 380 -65 605 -97 759 -109 47 -3 101 -8
120 -11 22 -4 31 -2 25 4 -10 9 -180 48 -335 76 -47 8 -258 40 -470 71 -373
54 -642 100 -745 129 -66 19 -51 19 147 1z m-917 -43 c33 -10 59 -22 58 -27
-1 -6 -17 -14 -37 -19 -28 -7 -49 -4 -110 18 -42 16 -76 32 -76 37 0 14 100 9
165 -9z m-1119 -7 c-37 -28 -309 -105 -323 -91 -3 2 24 18 59 35 71 35 195 70
248 70 33 0 34 -1 16 -14z m909 -46 c38 -10 80 -19 93 -19 20 0 21 -3 12 -20
-17 -32 -50 -33 -140 -4 -53 17 -107 28 -142 27 -49 0 -56 2 -46 15 31 36 94
37 223 1z m536 12 c122 -6 161 -20 174 -61 9 -29 7 -30 -45 -20 -25 5 -67 9
-95 10 -91 1 -151 26 -177 74 -9 16 -8 18 8 11 11 -5 71 -11 135 -14z m-1285
-51 c-8 -69 -26 -124 -88 -270 -57 -133 -86 -244 -68 -265 23 -28 73 -28 140
0 48 20 71 25 101 20 50 -9 51 8 4 37 -58 34 -44 53 39 53 87 0 103 -17 62
-65 -25 -31 -26 -34 -10 -51 10 -11 31 -19 50 -19 28 0 38 7 64 44 l30 45 48
-15 c101 -32 158 -44 200 -44 73 0 42 33 -58 62 -57 16 -61 45 -11 70 l34 17
-54 15 c-30 8 -66 18 -81 22 -37 8 -78 48 -78 75 0 19 4 21 35 15 20 -4 56
-16 81 -27 25 -10 63 -22 85 -25 l39 -7 0 -52 0 -53 93 -16 c171 -30 251 -47
269 -57 14 -8 20 -6 25 7 10 27 -25 46 -70 40 -41 -7 -77 7 -77 29 0 49 141
51 310 6 164 -44 255 -63 287 -59 25 4 21 7 -38 35 -42 21 -125 44 -238 68
-182 38 -285 70 -276 86 10 15 115 10 205 -11 89 -20 210 -27 210 -11 0 12
-22 19 -95 31 -64 10 -85 23 -85 52 0 14 5 18 18 14 107 -31 524 -101 952
-160 179 -25 338 -48 353 -51 17 -3 26 -1 22 5 -15 24 -71 40 -183 54 -66 9
-135 22 -154 30 l-33 14 65 1 c36 1 164 -14 285 -33 121 -19 245 -37 275 -41
l55 -8 -35 -14 c-28 -12 -45 -13 -89 -4 -74 15 -114 14 -137 -4 -16 -13 -17
-16 -4 -25 8 -5 30 -10 49 -10 30 0 33 -3 29 -24 l-5 -24 103 6 c134 6 272 -9
594 -68 146 -27 313 -54 370 -62 l105 -13 -65 -6 c-190 -19 -466 -7 -950 41
-699 69 -822 67 -1693 -30 -482 -53 -736 -66 -1015 -51 -569 31 -792 63 -1327
191 -164 39 -228 50 -292 50 -119 0 -181 16 -221 56 -18 18 -31 38 -27 44 8
14 181 13 208 -1 12 -6 31 -20 42 -30 16 -14 50 -20 190 -29 94 -6 303 -27
465 -46 284 -33 610 -70 678 -77 17 -2 32 0 32 3 0 10 -70 39 -112 46 -40 7
-43 10 -28 34 7 12 18 12 68 2 64 -13 102 -15 102 -6 0 19 -90 69 -142 78 -21
4 -38 9 -38 13 0 19 47 82 76 102 27 19 49 24 106 26 72 2 72 2 114 48 39 44
94 163 94 206 0 17 8 31 18 31 3 0 2 -27 -2 -60z m5262 8 c4 -30 -22 -60 -43
-52 -21 8 -19 54 3 70 23 18 36 12 40 -18z m-4640 -48 c33 0 51 -4 47 -10 -9
-15 -162 -12 -224 4 -48 13 -91 39 -91 55 0 4 48 -5 108 -21 59 -15 131 -27
160 -28z m4070 28 c3 -25 0 -28 -27 -28 -28 0 -31 3 -31 31 0 27 3 30 28 27
21 -2 28 -9 30 -30z m-3640 -11 c6 -5 12 -16 12 -24 0 -11 -7 -14 -27 -10 -16
4 -43 9 -60 13 -18 3 -33 10 -33 15 0 11 61 27 80 21 8 -3 21 -9 28 -15z
m3797 -12 c0 -24 -43 -32 -76 -14 -22 11 -22 12 -3 26 28 21 79 13 79 -12z
m-4589 -21 c22 -9 98 -25 170 -35 166 -23 249 -54 198 -73 -27 -10 -50 -7
-105 18 -65 28 -119 39 -138 27 -18 -12 -7 -41 19 -48 43 -11 13 -33 -45 -33
-34 0 -141 35 -159 51 -6 5 6 15 28 24 l37 16 -27 34 c-30 40 -30 41 22 19z
m1587 1 c151 -16 330 -45 732 -119 137 -26 307 -54 377 -63 131 -17 144 -27
49 -39 -46 -6 -215 7 -288 22 -39 8 -25 -13 25 -36 47 -23 175 -52 287 -66 49
-6 55 -8 35 -15 -53 -15 -158 -8 -304 22 -83 17 -180 34 -215 37 -100 11 -90
31 15 34 49 2 89 8 91 13 2 7 -150 39 -384 83 -214 40 -458 88 -543 107 -155
33 -155 33 -87 34 37 1 132 -6 210 -14z m3172 -10 c29 -28 33 -55 8 -55 -9 0
-37 12 -62 26 -57 33 -54 31 -46 43 12 21 75 12 100 -14z m-3286 -71 c58 -8
207 -35 331 -59 124 -23 250 -46 280 -51 l55 -8 -60 -8 c-133 -18 -419 22
-790 111 l-120 29 99 1 c54 1 146 -6 205 -15z m-2794 -41 c-118 -62 -262 -101
-320 -85 -28 8 -25 10 60 41 118 43 221 70 270 70 l40 1 -50 -27z m1945 7 c78
-22 79 -45 1 -44 -50 0 -111 28 -119 53 -4 11 4 13 39 7 24 -4 60 -11 79 -16z
m-690 -50 c27 -27 26 -60 -2 -60 -29 0 -58 28 -58 57 0 29 32 31 60 3z m468 0
c50 0 92 -21 92 -45 0 -11 -6 -12 -26 -5 -14 6 -47 10 -72 10 -50 0 -92 21
-92 45 0 11 6 12 26 5 14 -6 47 -10 72 -10z m1167 -39 c36 -6 38 -8 20 -18
-11 -6 -47 -8 -83 -5 -52 4 -60 7 -51 18 12 15 51 17 114 5z m3120 -9 c38 -11
39 -38 2 -66 -30 -22 -20 -23 -184 20 -17 5 -23 2 -23 -9 0 -21 31 -37 70 -37
42 0 70 -16 70 -40 0 -19 -7 -20 -110 -20 -80 0 -112 3 -114 13 -3 6 -7 45
-10 86 l-5 74 137 -6 c75 -4 151 -10 167 -15z m-5455 -32 c15 -28 13 -30 -16
-20 -14 6 -50 10 -81 10 -55 0 -56 0 -39 19 32 35 116 29 136 -9z m3812 14
c110 -12 158 -31 158 -59 0 -12 -9 -14 -37 -11 -21 3 -71 8 -111 11 -78 6
-125 24 -136 50 -9 25 -7 37 6 29 6 -4 60 -13 120 -20z m857 11 c68 -8 91 -20
91 -47 0 -20 -4 -20 -75 -16 -80 5 -115 24 -115 60 0 14 6 17 23 14 12 -3 46
-8 76 -11z m-3478 -51 c48 -24 69 -44 69 -67 0 -13 -5 -17 -16 -13 -9 3 -28 9
-42 12 -39 10 -52 23 -52 55 0 34 -2 33 41 13z m-371 -35 c61 -29 64 -31 46
-45 -53 -38 -192 10 -172 61 9 24 55 18 126 -16z m3434 5 c17 -7 15 -9 -15
-20 -50 -18 -134 -17 -150 2 -10 13 -10 17 2 25 15 11 131 6 163 -7z m249 -40
c37 -10 67 -22 67 -27 0 -27 -132 -37 -168 -11 -26 18 -29 51 -4 57 20 5 17 6
105 -19z m346 -25 c32 -11 51 -35 51 -63 0 -13 -3 -13 -27 0 -19 9 -60 14
-126 14 -95 0 -97 0 -87 21 6 11 21 24 33 29 31 12 118 12 156 -1z m-659 -28
c0 -13 -26 -21 -68 -21 -45 0 -31 17 18 23 19 2 38 5 43 5 4 1 7 -2 7 -7z
m958 -7 c34 -5 72 -35 72 -56 0 -17 -156 -23 -196 -8 -33 13 -44 26 -44 55 0
19 5 21 68 18 37 -2 82 -6 100 -9z m-768 -29 c54 -28 27 -55 -34 -35 -39 12
-51 24 -41 40 9 15 42 12 75 -5z m231 -32 c41 -19 48 -30 25 -39 -21 -8 -86
23 -86 40 0 21 15 20 61 -1z m265 -18 c27 -8 62 -15 79 -15 l29 0 -22 -22
c-45 -45 -179 -20 -190 36 -4 21 37 21 104 1z m-342 -56 c89 -11 162 -22 164
-24 12 -11 -53 -29 -108 -29 -68 -1 -370 53 -370 67 0 14 153 7 314 -14z
m-5037 -43 c136 -43 166 -49 263 -55 l95 -6 12 -35 c7 -21 12 -99 12 -197 1
-132 -2 -163 -13 -163 -30 0 -38 28 -31 108 6 66 4 80 -10 92 -24 20 -32 4
-50 -110 -16 -100 -39 -645 -29 -662 8 -12 40 -9 52 5 6 6 14 27 19 46 5 19
20 41 33 50 23 15 23 15 16 -9 -15 -48 -19 -186 -6 -209 10 -19 14 -20 27 -9
37 30 54 94 54 199 0 56 -3 127 -6 158 -4 31 1 142 10 246 10 105 18 252 19
327 0 76 2 138 2 138 1 0 18 -7 37 -15 46 -19 88 -19 113 0 10 8 22 15 27 15
12 0 7 -83 -9 -135 -20 -68 -12 -107 41 -186 25 -36 48 -81 51 -100 l7 -34
-26 24 c-54 49 -72 15 -87 -165 -13 -152 -23 -179 -39 -105 -15 72 -14 230 4
396 8 77 15 160 15 184 0 38 -2 42 -16 30 -52 -43 -80 -161 -93 -385 -6 -93
-15 -192 -21 -219 -10 -46 -9 -51 9 -66 12 -10 42 -20 69 -24 72 -10 77 -15
63 -68 -6 -25 -11 -80 -11 -121 0 -69 2 -76 20 -76 27 0 48 36 56 98 l7 53 26
-25 c15 -14 32 -26 39 -26 20 0 31 35 31 95 -1 71 15 93 30 39 12 -42 36 -282
29 -289 -14 -15 -222 -37 -384 -42 -261 -8 -460 19 -696 93 -90 29 -100 48
-35 64 23 6 50 13 59 16 12 4 20 19 24 45 4 21 10 39 15 39 11 0 21 -36 19
-73 -4 -60 -1 -67 24 -67 22 0 23 4 29 88 4 48 4 304 0 570 -6 439 -5 482 10
482 9 0 51 -11 94 -24z m5852 -41 c1 -30 -14 -55 -31 -55 -12 0 -10 52 4 90
10 30 12 32 19 14 4 -10 8 -33 8 -49z m-6119 -45 c0 -73 -7 -103 -21 -94 -10
6 -12 157 -3 167 16 16 24 -9 24 -73z m5885 -86 c-4 -46 -11 -84 -16 -84 -11
0 -12 203 -2 214 16 16 25 -50 18 -130z m129 -219 c1 -352 -11 -634 -26 -595
-16 41 -22 375 -9 561 7 96 12 224 13 284 0 88 2 104 11 80 6 -18 10 -155 11
-330z m-1949 318 c-3 -10 -12 -35 -18 -55 l-12 -37 -27 32 c-26 30 -28 31 -42
13 -20 -25 -36 -12 -36 30 l0 34 71 0 c64 0 70 -2 64 -17z m146 -7 c21 -45
-14 -136 -51 -136 -13 0 -13 101 0 134 12 33 37 33 51 2z m389 -36 c5 -10 10
-37 10 -60 0 -39 2 -41 26 -38 29 3 35 11 58 71 13 31 20 37 44 37 27 0 30 -3
36 -46 10 -79 6 -236 -14 -549 -24 -373 -26 -515 -6 -515 27 0 67 45 76 85 5
22 7 92 3 155 -8 168 32 838 51 858 8 7 44 -18 60 -43 29 -45 37 -118 26 -264
-5 -75 -14 -237 -21 -361 -6 -124 -17 -279 -25 -345 -7 -66 -14 -126 -14 -134
0 -11 -59 -13 -367 -8 -348 5 -569 20 -658 46 l-30 9 40 17 c32 14 59 16 133
13 93 -5 94 -5 105 21 9 18 12 141 12 426 0 350 2 405 17 436 24 54 41 60 31
12 -10 -50 -10 -250 1 -433 7 -121 6 -157 -8 -217 -24 -108 -22 -175 9 -211
14 -16 33 -32 44 -35 17 -4 20 4 30 72 24 169 31 283 37 649 l7 383 51 -3 51
-3 3 -102 c3 -108 8 -118 48 -89 16 12 19 25 16 81 -3 87 2 103 41 113 36 10
62 1 77 -28z m1063 16 c9 -13 3 -91 -25 -326 -22 -192 -25 -336 -9 -419 20
-98 14 -191 -14 -248 -15 -28 -33 -57 -42 -64 -14 -12 -15 6 -9 181 16 446 39
849 51 887 5 14 35 6 48 -11z m-544 -32 c37 -47 45 -122 26 -250 -14 -90 -17
-157 -13 -321 7 -304 -13 -513 -49 -513 -25 0 -52 20 -67 48 -25 50 -26 136
-5 382 11 135 23 337 25 450 3 113 7 211 9 218 7 21 52 13 74 -14z m231 0 c15
-38 12 -97 -11 -224 -18 -100 -21 -152 -20 -394 2 -287 -6 -372 -38 -435 l-18
-35 -11 35 c-36 110 -38 444 -7 864 8 105 15 196 15 203 0 7 15 12 40 12 34 0
42 -4 50 -26z m144 10 c21 -20 21 -156 1 -369 -9 -97 -14 -235 -13 -359 3
-191 2 -203 -20 -251 -12 -27 -30 -58 -40 -68 -16 -18 -17 -14 -22 89 -7 139
5 565 19 709 26 261 35 290 75 249z m270 -136 c7 -131 -2 -367 -26 -668 -10
-129 -13 -149 -21 -120 -18 68 13 920 33 920 4 0 10 -60 14 -132z m-4656 33
c-5 -59 -28 -50 -28 12 0 29 3 57 7 61 11 11 24 -35 21 -73z m138 2 c20 -84
16 -292 -10 -618 -21 -257 -23 -274 -31 -210 -8 74 -2 307 15 570 6 88 8 198
4 245 -7 95 2 100 22 13z m4873 38 c10 -6 12 -22 9 -55 -10 -83 -33 -75 -33
10 0 57 1 59 24 45z m-6124 -169 c0 -152 -19 -148 -23 4 -2 91 0 115 10 112
10 -4 13 -34 13 -116z m1115 -113 c0 -126 -8 -166 -24 -123 -8 21 -8 259 0
267 18 18 24 -17 24 -144z m2930 15 c0 -113 -8 -150 -24 -108 -8 21 -8 229 0
237 18 18 24 -15 24 -129z m1840 69 c10 -51 11 -118 4 -278 -5 -115 -8 -257
-7 -315 3 -105 3 -105 -16 -81 -46 59 -50 128 -21 306 17 101 19 145 14 278
-8 170 4 209 26 90z m-5244 -179 c-4 -13 -10 -24 -15 -24 -18 0 -21 34 -4 59
15 23 18 24 21 8 2 -10 1 -29 -2 -43z m-638 -54 c-2 -48 -7 -75 -15 -78 -10
-3 -13 17 -13 76 0 43 3 82 7 86 16 16 24 -16 21 -84z m631 -147 c1 -67 -12
-89 -30 -49 -8 16 -9 50 -4 103 l8 78 13 -35 c7 -19 13 -63 13 -97z m477 93
c3 -8 -2 -28 -10 -45 -9 -16 -16 -47 -16 -68 -1 -36 -1 -37 -16 -18 -11 14
-14 32 -10 63 9 68 38 105 52 68z m2934 -188 c0 -44 -9 -70 -21 -62 -10 6 -12
107 -2 117 11 12 23 -16 23 -55z m1699 -634 c1 -83 -8 -237 -19 -345 -12 -116
-20 -267 -20 -376 0 -176 -3 -213 -20 -213 -34 0 -9 747 37 1110 l7 55 7 -40
c4 -22 8 -108 8 -191z m-3153 199 c4 -10 11 -108 14 -218 4 -110 12 -212 18
-227 11 -25 4 -34 -147 -200 -87 -95 -182 -191 -210 -213 -54 -42 -191 -129
-195 -123 -6 9 10 975 17 986 6 9 68 12 252 12 222 0 244 -2 251 -17z m-824
-160 c4 -195 -8 -963 -18 -1127 -4 -75 -10 -122 -15 -113 -17 30 -40 198 -49
362 -5 94 -7 362 -3 598 l6 427 38 0 38 0 3 -147z m158 81 c0 -6 -5 -36 -11
-65 -8 -35 -13 -223 -14 -534 -2 -433 -10 -590 -28 -545 -14 36 -27 319 -27
586 0 264 10 484 26 588 l6 39 24 -29 c13 -16 23 -34 24 -40z m1004 50 c17
-45 -4 -169 -27 -161 -27 9 -31 36 -14 84 9 26 17 58 17 71 0 25 15 30 24 6z
m506 1 c73 -9 140 -13 151 -10 31 10 22 -6 -49 -87 -102 -117 -229 -222 -361
-300 -36 -21 -68 -38 -72 -38 -3 0 0 28 7 63 7 34 17 112 23 173 5 61 17 130
26 152 15 36 22 42 53 48 21 3 42 7 47 9 19 6 43 5 175 -10z m-4810 -30 c0
-25 -13 -31 -45 -19 -14 6 -14 8 1 25 24 27 44 24 44 -6z m2885 -240 c-1 -93
-3 -240 -5 -325 -2 -85 -1 -166 3 -180 6 -17 5 -20 -2 -10 -5 8 -17 44 -26 80
-18 71 -23 220 -16 520 l4 175 21 -45 c19 -40 21 -64 21 -215z m-2519 223 c22
-10 43 -52 31 -64 -10 -10 -254 33 -262 47 -5 7 37 24 85 33 35 6 116 -3 146
-16z m2612 -133 c1 -77 0 -146 -3 -154 -15 -39 -25 23 -25 157 0 111 3 143 13
140 9 -3 13 -43 15 -143z m-2721 -30 c19 -8 47 -15 60 -15 36 0 23 -24 -14
-28 -17 -2 -56 4 -88 13 -46 14 -54 19 -44 31 15 18 41 18 86 -1z m4036 -127
c8 -11 6 -41 -6 -105 -10 -50 -15 -97 -11 -106 12 -33 -7 -16 -21 18 -20 47
-10 217 13 213 8 -2 20 -10 25 -20z m-4815 -134 c21 -79 1 -164 -38 -164 -26
0 -25 21 0 95 24 69 23 60 4 80 -9 8 -13 23 -10 31 11 28 31 9 44 -42z m1952
-284 c-6 -96 -28 -330 -50 -520 -22 -190 -43 -381 -48 -425 l-9 -80 -2 120 c0
66 3 183 9 260 12 171 90 914 99 935 12 29 12 -117 1 -290z m2564 91 c35 -36
41 -82 27 -186 -8 -55 -16 -83 -28 -90 -59 -36 -171 -129 -297 -247 -133 -124
-226 -198 -248 -198 -11 0 -10 75 2 130 34 150 95 230 315 414 81 68 149 139
171 179 18 34 24 34 58 -2z m-4509 -31 c7 -12 -53 -76 -62 -66 -3 3 1 14 10
24 10 10 17 26 17 35 0 18 25 23 35 7z m933 -132 c30 -30 2 -94 -35 -81 -13 5
-18 74 -6 86 10 11 28 8 41 -5z m2561 -124 c19 -155 11 -578 -10 -557 -4 4
-13 41 -20 82 -8 56 -8 129 1 298 6 123 9 242 6 266 -4 29 -3 36 3 21 5 -11
14 -61 20 -110z m1270 -51 c2 -141 -37 -303 -72 -303 -13 0 0 106 24 205 11
44 22 116 26 160 9 102 21 68 22 -62z m-3832 37 c7 -14 13 -49 13 -77 0 -50
-2 -53 -25 -53 -30 0 -36 21 -33 103 3 63 21 74 45 27z m2447 -106 c9 -24 7
-64 -3 -64 -11 0 -21 25 -21 56 0 27 15 32 24 8z m-3414 -65 c0 -27 -21 -54
-33 -42 -9 8 -9 51 0 82 6 23 7 23 20 6 7 -11 13 -31 13 -46z m980 -39 c0 -25
-4 -30 -25 -30 -14 0 -28 7 -31 15 -10 25 4 45 31 45 21 0 25 -5 25 -30z
m2824 -330 c-4 -36 -7 -98 -8 -137 -1 -75 -7 -88 -26 -54 -12 23 -13 80 -3
211 l6 92 19 -23 c16 -21 18 -34 12 -89z m-130 4 c13 -5 16 -22 16 -85 0 -43
-2 -79 -5 -79 -20 0 -57 28 -61 47 -8 32 4 106 19 115 15 9 12 9 31 2z m-2707
-32 c10 -6 8 -19 -6 -56 -20 -53 -25 -52 -35 7 -10 52 7 71 41 49z m2581 -254
c-6 -18 -55 -44 -65 -34 -10 9 33 46 54 46 8 0 13 -6 11 -12z m-110 -39 c4
-19 -25 -52 -39 -44 -5 4 -9 20 -9 36 0 26 3 30 22 27 13 -2 24 -10 26 -19z
m4167 -123 c4 -33 11 -70 16 -83 14 -36 2 -27 -24 20 -32 55 -39 89 -26 124
14 37 24 18 34 -61z m-5751 -68 c21 -29 20 -41 -4 -69 -17 -21 -21 -22 -30 -9
-17 26 -10 100 11 100 4 0 15 -10 23 -22z"/>
<path d="M4860 4425 c0 -20 5 -25 25 -25 20 0 25 5 25 25 0 20 -5 25 -25 25
-20 0 -25 -5 -25 -25z"/>
<path d="M6410 4437 c0 -17 122 -17 127 1 4 9 -13 12 -61 12 -46 0 -66 -4 -66
-13z"/>
<path d="M6855 4351 l-30 -8 35 -6 c318 -60 383 -70 490 -71 107 -1 218 10
207 20 -6 6 -152 31 -287 49 -136 18 -373 27 -415 16z"/>
<path d="M4226 3818 c-12 -217 -12 -608 0 -608 17 0 54 44 63 76 4 16 7 148 7
294 -2 253 -3 267 -24 308 -12 23 -26 42 -31 42 -5 0 -12 -51 -15 -112z"/>
<path d="M4065 3462 c-42 -63 -50 -135 -36 -296 7 -78 15 -143 17 -145 3 -3
13 4 24 15 33 33 42 113 29 258 -6 72 -8 147 -5 168 4 21 4 38 1 38 -2 0 -16
-17 -30 -38z"/>
<path d="M4590 3095 c0 -74 3 -135 6 -135 10 0 49 23 57 34 4 6 5 52 1 102 -4
61 -2 98 5 113 11 20 9 21 -29 21 l-40 0 0 -135z"/>
<path d="M4340 3015 c0 -23 4 -25 45 -25 38 0 43 2 38 18 -9 23 -23 32 -55 32
-23 0 -28 -4 -28 -25z"/>
<path d="M8435 3839 c-4 -22 -4 -129 0 -237 5 -156 4 -220 -9 -310 -22 -152
-21 -214 4 -262 11 -22 24 -40 29 -40 9 0 24 55 37 140 4 25 8 189 9 365 0
176 5 335 9 353 l9 32 -41 0 c-39 0 -40 -1 -47 -41z"/>
<path d="M8250 3524 c0 -219 -3 -293 -17 -358 -14 -71 -15 -85 -2 -111 8 -16
22 -31 31 -33 20 -4 34 57 48 208 10 120 2 526 -12 553 -5 9 -18 17 -28 17
-19 0 -20 -8 -20 -276z"/>
<path d="M3121 10049 l-31 -43 0 -265 c0 -335 10 -517 92 -1691 17 -243 17
-1310 0 -1635 -33 -635 -84 -1394 -102 -1520 -11 -77 -20 -151 -20 -165 0 -48
22 -102 55 -138 l33 -36 19 39 c79 156 117 367 133 731 6 131 17 372 25 534
50 991 56 1351 30 1880 -15 304 -20 381 -75 1135 -50 681 -59 960 -38 1086 16
90 2 122 -54 127 -32 3 -39 -1 -67 -39z"/>
<path d="M8084 9835 c-22 -63 -39 -94 -95 -180 -34 -53 -59 -98 -57 -100 9 -9
84 52 121 97 62 76 82 144 53 184 -14 19 -15 19 -22 -1z"/>
<path d="M2615 9773 c29 -115 31 -223 10 -428 -23 -220 -20 -337 10 -425 29
-84 30 -106 11 -214 -25 -137 -8 -371 75 -1031 42 -341 51 -441 59 -680 5
-154 14 -307 20 -340 5 -33 10 -63 10 -67 0 -11 51 -68 60 -68 36 0 48 245 25
485 -10 99 -18 237 -19 306 0 74 -6 132 -12 140 -28 36 -66 296 -88 609 -31
421 -36 608 -34 1125 3 583 3 584 -54 604 -17 6 -42 11 -56 11 -21 0 -23 -3
-17 -27z"/>
<path d="M10614 9429 c-3 -6 -1 -15 7 -20 11 -6 13 -102 10 -536 -3 -644 12
-1149 60 -2018 21 -389 36 -623 104 -1645 78 -1180 79 -1197 78 -1705 0 -258
-4 -510 -9 -559 l-9 -89 -100 -43 c-85 -36 -111 -43 -168 -44 -38 0 -77 5 -88
11 -11 5 -32 35 -46 65 -35 74 -61 91 -113 74 -27 -9 -65 -11 -129 -6 -88 7
-91 7 -116 -18 -14 -14 -25 -30 -25 -36 0 -17 135 -76 223 -99 44 -11 134 -28
200 -36 326 -43 410 -57 466 -74 77 -24 111 -17 231 46 l89 46 36 -31 c130
-115 380 -134 597 -48 l57 23 74 -44 c95 -55 166 -72 245 -55 111 23 326 150
362 215 39 69 -54 52 -215 -40 -119 -68 -176 -91 -249 -99 -51 -6 -55 -5 -71
20 -10 15 -22 48 -26 73 -15 79 -30 93 -99 93 -73 0 -144 -26 -213 -77 -121
-91 -164 -104 -229 -75 -65 30 -124 86 -155 149 -35 74 -42 193 -19 383 28
239 29 302 13 707 -9 219 -21 589 -27 823 -6 234 -15 578 -21 765 -7 234 -6
682 1 1435 8 701 8 1214 3 1425 -9 307 -11 333 -31 371 -25 50 -69 88 -117
104 -20 7 -38 10 -40 8 -1 -1 1 -156 6 -343 4 -187 13 -549 19 -805 6 -256 17
-737 25 -1070 27 -1116 35 -1432 50 -2085 8 -357 17 -783 20 -945 3 -162 8
-376 11 -475 l5 -180 -99 -99 c-105 -105 -149 -135 -197 -135 -59 -1 -60 1
-47 171 53 692 37 1356 -68 2718 -49 626 -72 1045 -85 1520 -20 708 -51 1455
-80 1920 -23 359 -22 355 -51 369 -31 14 -41 14 -50 0z"/>
<path d="M11864 8035 c4 -17 11 -169 16 -340 5 -209 16 -388 34 -550 101 -947
120 -1496 91 -2652 -14 -596 -15 -762 -5 -1020 13 -360 23 -434 33 -263 4 63
11 176 17 250 67 929 75 2087 20 3055 -34 595 -118 1486 -140 1493 -6 2 -25
16 -42 30 l-31 26 7 -29z"/>
<path d="M12705 6281 c3 -19 10 -156 15 -305 11 -293 24 -434 46 -481 12 -26
14 6 9 255 -5 299 -16 407 -55 510 -15 41 -19 47 -15 21z"/>
<path d="M12755 5371 c4 -13 1 -69 -5 -125 -11 -92 -11 -106 5 -136 22 -43 32
-28 41 68 5 56 2 89 -11 138 -9 35 -22 67 -27 70 -6 4 -7 -2 -3 -15z"/>
<path d="M12750 4998 c0 -13 -7 -54 -16 -91 -15 -61 -15 -72 -2 -100 l15 -31
22 90 c17 68 20 96 12 116 -13 36 -31 45 -31 16z"/>
<path d="M12700 4603 c0 -35 14 -74 22 -63 7 9 28 77 28 88 0 7 -11 12 -25 12
-22 0 -25 -4 -25 -37z"/>
<path d="M12700 4463 c0 -9 -10 -27 -22 -40 -32 -34 -2 -28 33 7 30 29 31 50
3 50 -8 0 -14 -8 -14 -17z"/>
</g>
</svg>
