<?xml version="1.0" encoding="utf-8"?>
<!-- Designed by Vexels.com - 2019 All Rights Reserved - https://vexels.com/terms-and-conditions/  -->
<svg version="1.1" id="Layer_1" xmlns="http://www.w3.org/2000/svg" xmlns:xlink="http://www.w3.org/1999/xlink" x="0px" y="0px"
	 viewBox="0 0 1200 1200" enable-background="new 0 0 1200 1200" xml:space="preserve">
<g>
	<path fill="#231F20" d="M1132.777,572.77c-11.085-17.713-27.252-31.776-46.214-40.821c-18.483-8.817-37.397-11.099-57.615-10.971
		c-25.485,0.154-51.089-0.608-76.484-0.608c-7.935-2.074-13.488-9.242-13.511-17.659c-0.067-25.002-4.932-49.7-10.79-73.91
		c-5.656-23.375-12.918-46.28-22.169-68.49c-18.472-44.351-44.13-85.632-75.659-121.878c-17.203-19.776-36.121-38.06-56.477-54.572
		c-37.751-30.679-80.387-55.393-126.087-72.127c-17.884-6.549-36.193-11.934-54.768-16.138
		c-50.158-11.354-102.269-13.911-153.298-7.531c-21.428,2.679-42.664,6.922-63.468,12.713
		c-53.832,14.974-103.901,39.791-148.81,73.761c-7.935,6.001-15.678,12.264-23.009,18.612
		c-31.663,27.401-59.333,59.074-82.239,94.133L92.177,340.95l-0.209,0.427c-23.376,49.686-37.123,102.515-40.887,157.079H50v567.527
		c0,4.095,0.545,8.263,1.621,12.397c5.734,22.042,26.309,36.977,49.085,36.977l999.92,0c25.662,0,47.241-20.018,49.184-45.598
		c0.007-0.088,0.01-0.178,0.01-0.266c0.003-7.51,0.048-416.387,0.152-423.729c0.327-22.893-2.06-44.096-12.595-64.856
		C1135.961,578.118,1134.425,575.403,1132.777,572.77z M1142.277,718.583l-59.601-16.135l48.808-116.164
		c7.048,14.207,10.793,29.847,10.793,45.845V718.583z M1142.277,885.953l-80.181-54.486l80.181-46.595V885.953z M1062.499,837.967
		l79.778,54.212v159.883L1062.499,837.967z M627.874,1081.606h139.282l0.933,26.029H647.971L627.874,1081.606z M162.283,1081.606
		h109.392l-15.757,26.029h-90.089L162.283,1081.606z M58.363,1072.963c-0.409-2.342-0.639-4.677-0.639-6.979v-57.22l74.712,13.377
		L58.363,1072.963z M135.203,872.835v134.708l-77.48-151.073v-2.256l148.791-159.589l-18.134,162.729h-37.696
		C142.147,857.353,135.203,864.297,135.203,872.835z M57.723,561.617l164.631-30.847l-14.624,152.433L57.723,608.297V561.617z
		 M385.249,177.715l-145.728-2.503c41.359-29.964,86.994-52.177,135.816-66.127L385.249,177.715z M538.988,94.625l18.804,188.588
		L392.858,180.197l122.355-87.359c0.25,0.012,0.749,0.027,0.749,0.027C523.451,93.227,531.194,93.832,538.988,94.625z
		 M995.822,972.477h5.694l0.241,101.405h-46.999V972.477h4.026c3.311,0,5.995-2.684,5.995-5.995V865.076h25.047v101.406
		C989.827,969.794,992.511,972.477,995.822,972.477z M900.04,1073.883V865.076h35.519v101.406c0,3.311,2.684,5.995,5.995,5.995
		h5.483v101.405H900.04z M735.879,1073.883l0.138-101.31h5.923c3.311,0,5.995-2.684,5.995-5.995V865.076h24.819v101.502
		c0,3.311,2.684,5.995,5.995,5.995h4.126v101.31H735.879z M554.474,857.353l75.422-43.839l86.493,43.839H554.474z M464.85,1073.883
		V972.477h5.063c3.311,0,5.995-2.684,5.995-5.995V865.076h36.511l-0.57,208.807H464.85z M410.128,1073.883V972.477h5.745
		c3.311,0,5.995-2.684,5.995-5.995V865.076h24.819v101.406c0,3.311,2.684,5.995,5.995,5.995h4.445v101.405H410.128z
		 M303.261,1073.883V865.076h35.345v101.406c0,3.311,2.684,5.995,5.995,5.995h5.659v101.405H303.261z M248.542,1073.883V972.477
		h4.754c3.31,0,5.995-2.684,5.995-5.995V865.076h36.247v208.807H248.542z M727.774,857.353l-88.101-44.654l220.608-10.385
		l-33.142,55.039H727.774z M361.592,857.353l110.78-103.491l-10.841,103.491H361.592z M472.447,746.746L356.481,855.082
		l28.076-273.188L472.447,746.746z M387.253,576.003l165.661,7.27l-77.365,158.342L387.253,576.003z M558.916,582.72
		l122.439,131.852l-201.251,29.453L558.916,582.72z M386.699,570.825l53.412-124.076l114.707,131.454L386.699,570.825z
		 M381.391,570.127l-148.236-42.908l201.378-80.54L381.391,570.127z M351.286,855.248L213.738,687.756L379.741,578.37
		L351.286,855.248z M681.558,719.745l-52.812,87.62l-143.431-58.901L681.558,719.745z M687.586,719.719l166.824,77.716
		l-219.906,10.352L687.586,719.719z M690.773,715.526l127.952-145.936l42.781,225.471L690.773,715.526z M686.52,712.567
		L563.871,580.489l250.43-13.663L686.52,712.567z M444.395,443.825l211.056-31.563l-97.582,161.604L444.395,443.825z
		 M445.414,438.466l115.502-146.194l94.685,114.761L445.414,438.466z M439.217,438.007L330.724,319.683l224.233-28.171
		L439.217,438.007z M434.946,440.967l-204.54,81.805L326.138,322.3L434.946,440.967z M376.781,574.155l-163.77,107.916
		l14.498-151.125L376.781,574.155z M346.353,857.353H193.562l18.256-163.823L346.353,857.353z M199.027,972.477
		c3.311,0,5.995-2.684,5.995-5.995V865.076h25.048v101.406c0,3.311,2.684,5.995,5.995,5.995h4.754v101.405H193.82V972.477H199.027z
		 M357.983,972.477h3.849c3.311,0,5.995-2.684,5.995-5.995V865.076h24.819v101.406c0,3.311,2.684,5.995,5.995,5.995h3.764v101.405
		h-44.422V972.477z M466.706,857.353l11.144-106.389l146.154,60.019l-79.776,46.37H466.706z M629.011,972.477h4.163
		c3.311,0,5.995-2.684,5.995-5.995V865.076h36.838v208.807h-46.996V972.477z M683.731,865.076h34.982v101.502
		c0,3.311,2.684,5.995,5.995,5.995h3.447v101.31h-44.424V865.076z M790.598,972.573h5.382c3.311,0,5.995-2.684,5.995-5.995V865.076
		h24.819v101.502c0,3.311,2.684,5.995,5.995,5.995h4.805v101.31h-46.996V972.573z M845.318,972.573h4.703
		c3.311,0,5.995-2.684,5.995-5.995V865.076h36.301v208.807h-46.999V972.573z M833.148,857.353l32.621-54.174l79.274,54.174H833.148z
		 M1081.219,707.386l61.057,16.53v55l-81.539,47.385L1081.219,707.386z M1055.161,828.341l-181.304-29.965l201.951-89.903
		L1055.161,828.341z M871.631,793.734l98.258-156.856l103.876,66.871L871.631,793.734z M866.275,792.582l-42.54-224.202
		l141.625,66.025L866.275,792.582z M562.969,575.384l98.048-162.376l153.238,148.667L562.969,575.384z M564.494,288.515
		l154.805-128.517l-60.085,243.321L564.494,288.515z M562.956,283.1L544.22,95.2c61.882,7.023,120.373,26.881,173.95,59.043
		L562.956,283.1z M553.369,286.522L329.716,314.62l59.633-130.542L553.369,286.522z M224.818,522.528L100.065,345.09l221.078-24.276
		L224.818,522.528z M142.926,872.835c0-4.279,3.48-7.759,7.759-7.759H175.8v101.406c0,3.311,2.684,5.995,5.995,5.995h4.302v101.405
		h-35.411c-4.279,0-7.759-3.479-7.759-7.759V872.835z M277.693,1081.606h41.001l11.415,26.029h-68.173L277.693,1081.606z
		 M324.317,1081.606h97.054l-5.855,26.029h-79.784L324.317,1081.606z M426.648,1081.606h93.1l14.34,26.029H420.793L426.648,1081.606
		z M519.574,1073.883l0.569-208.807h35.536v101.406c0,3.311,2.684,5.995,5.995,5.995h4.892v101.405H519.574z M574.289,972.477h4.617
		c3.311,0,5.995-2.684,5.995-5.995V865.076h25.047v101.406c0,3.311,2.684,5.995,5.995,5.995h5.345v101.405h-46.999V972.477z
		 M772.306,1081.606h114.317l-19.252,26.029h-94.132L772.306,1081.606z M893.026,1081.606h40.258l-1.997,26.029h-57.513
		L893.026,1081.606z M938.448,1081.606h105.467l20.361,26.029H936.451L938.448,1081.606z M1044.164,1073.883h-34.682V972.477h3.573
		c3.311,0,5.995-2.684,5.995-5.995V865.076h25.115c4.279,0,7.759,3.48,7.759,7.759v193.29
		C1051.922,1070.403,1048.443,1073.883,1044.164,1073.883z M952.369,857.353l0.573-0.837l-76.919-52.565l176.77,29.215
		l-17.084,24.187H952.369z M1128.35,580.448l-50.374,119.891l-103.489-66.622l146.022-65.024
		C1122.002,570.614,1127.666,579.265,1128.35,580.448z M1038.849,528.701c30.33,0,58.786,13.224,78.298,35.855l-146.048,65.035
		l-16.286-101.038C955.557,528.621,1038.849,528.701,1038.849,528.701z M931.237,502.952c0.022,11.315,7.452,21.242,18.192,24.557
		l16.345,101.408l-142.396-66.385l66.324-219.692C913.865,393.436,927.852,447.321,931.237,502.952z M886.39,336.002l-67.363,223.13
		L664.74,409.446l199-113.408C871.933,308.899,886.339,335.898,886.39,336.002z M860.94,291.706L664.423,403.698l60.57-245.289
		l4.168,2.616C781.417,194.5,826.916,239.656,860.94,291.706z M506.781,92.534l-116.611,83.258l-9.836-68.099
		c37.218-10.159,75.747-15.338,114.566-15.338C498.808,92.355,502.783,92.425,506.781,92.534z M232.089,180.698
		c0.204-0.154,0.411-0.3,0.615-0.454l151.55,2.603L324.68,313.261L211.611,197.169C218.182,191.559,225.047,186.023,232.089,180.698
		z M128.719,291.397c22.07-33.757,48.658-64.293,79.003-90.84l112.21,115.209l-218.226,23.963L128.719,291.397z M58.337,506.18
		l0.219-3.628c3.229-53.143,16.11-104.635,38.242-153.153l124.038,176.419L57.723,556.381V506.18H58.337z M57.723,794.593v-114.9
		v-65.643l147.98,73.893L57.723,846.663v-0.546V794.593z M57.723,867.749l76.68,149.513l-76.68-13.73V867.749z M59.663,1078.311
		l75.54-51.83v39.642c0,8.538,6.944,15.482,15.482,15.482h6.4l3.546,26.029H99.372C81.153,1107.635,65.037,1095.636,59.663,1078.311
		z M539.967,1107.635l-14.34-26.029h95.738l20.098,26.029H539.967z M1142.116,1069.063c-1.584,21.629-19.809,38.571-41.49,38.571
		h-29.81l-21.162-27.052c5.831-2.222,9.992-7.855,9.992-14.458v-193.29c0-8.538-6.944-15.482-15.482-15.482h-2.153l14.542-20.588
		L1142.116,1069.063z"/>
</g>
</svg>
