<?xml version="1.0" encoding="utf-8"?>
<!-- Designed by Vexels.com - 2019 All Rights Reserved - https://vexels.com/terms-and-conditions/  -->
<svg version="1.1" id="Layer_1" xmlns="http://www.w3.org/2000/svg" xmlns:xlink="http://www.w3.org/1999/xlink" x="0px" y="0px"
	 viewBox="0 0 1200 1200" enable-background="new 0 0 1200 1200" xml:space="preserve">
<g>
	<polygon fill="none" points="627.977,875.482 632.071,839.738 627.977,875.482 	"/>
	<path fill="#242424" d="M560.598,285.975L540.795,87.357c-8.348-0.882-16.76-1.548-25.24-1.955L386.732,177.38L560.598,285.975z"/>
	<path fill="#2E2E2E" d="M515.555,85.402c-7.091-0.341-14.223-0.52-21.397-0.52c-41.026,0-80.747,5.628-118.459,16.118
		l11.034,76.381L515.555,85.402z"/>
	<path fill="#1C1C1C" d="M375.699,101c-54.427,15.139-104.656,40.429-148.557,73.636l159.59,2.745L375.699,101z"/>
	<path fill="#2E2E2E" d="M386.732,177.38l-159.59-2.745c-7.863,5.949-15.531,12.14-22.975,18.584l119.351,122.539L386.732,177.38z"
		/>
	<polygon fill="#3B3B3B" points="386.732,177.38 323.518,315.759 560.598,285.975 	"/>
	<path fill="#2E2E2E" d="M724.547,149.864c-54.627-33.459-116.989-55.453-183.752-62.507l19.802,198.618L724.547,149.864z"/>
	<path fill="#1C1C1C" d="M204.167,193.22c-31.561,27.316-59.235,58.976-82.11,93.985L91.982,341.02
		c-0.027,0.058-0.053,0.116-0.08,0.173l231.616-25.434L204.167,193.22z"/>
	<polygon fill="#2E2E2E" points="323.518,315.759 438.227,440.863 560.598,285.975 	"/>
	<path fill="#242424" d="M660.914,407.562l71.259-252.909c-2.527-1.619-5.065-3.22-7.626-4.788l-163.95,136.112L660.914,407.562z"/>
	<polygon fill="#1C1C1C" points="560.598,285.975 438.227,440.863 660.914,407.562 	"/>
	<path fill="#2E2E2E" d="M91.903,341.193c-0.003,0.005-0.005,0.011-0.008,0.016l130.699,185.894l100.924-211.345L91.903,341.193z"/>
	<path fill="#3B3B3B" d="M91.895,341.21c-23.218,49.355-37.593,103.533-41.049,160.424H50v21.421v36.388l172.594-32.339
		L91.895,341.21z"/>
	<polygon fill="#3B3B3B" points="438.227,440.863 222.594,527.104 381.324,573.051 	"/>
	<path fill="#2E2E2E" d="M1149.829,1072.668c0.082-1.121,0.171-2.241,0.171-3.383V893.758l-89.5-60.822L1149.829,1072.668z"/>
	<polygon fill="#2E2E2E" points="1038.941,1094.091 1010.242,1094.091 1010.242,1076.826 1004.356,1073.285 1004.356,1094.091 
		955.59,1094.091 955.589,1094.091 955.589,1043.948 949.704,1040.407 949.704,1094.091 938.327,1094.091 935.934,1115.118 
		1073.894,1115.118 	"/>
	<path fill="#1C1C1C" d="M1036.423,875.482h22.037c0.302,0,0.548,0.245,0.548,0.548v218.061h-20.067l34.953,21.027h30.273
		c24.171,0,43.925-18.723,45.663-42.45l-89.33-239.732L1036.423,875.482z"/>
	<polygon fill="#1C1C1C" points="955.589,1018.327 949.704,1028.728 949.704,1040.407 955.589,1043.948 	"/>
	<polygon fill="#1C1C1C" points="1010.242,990.672 1022.013,990.672 1022.013,875.482 1010.79,875.482 1003.808,875.482 
		992.585,875.482 992.585,990.672 1004.356,990.672 1004.356,1073.285 1010.242,1076.826 	"/>
	<polygon fill="#242424" points="1060.5,832.936 1150,780.924 1150,723.165 1082.552,704.904 	"/>
	<path fill="#2E2E2E" d="M1150,723.165v-90.804c0-21.22-6.142-40.995-16.709-57.691l-50.738,130.234L1150,723.165z"/>
	<path fill="#3B3B3B" d="M1082.552,704.904l50.738-130.234c-0.493-0.778-0.979-1.561-1.491-2.326l-160.099,61.2L1082.552,704.904z"
		/>
	<path fill="#3B3B3B" d="M891.408,875.482h3.096c0.302,0,0.548,0.245,0.548,0.548v10.51l5.886,17.862V876.03
		c0-0.303,0.246-0.548,0.548-0.548h36.447h11.224h6.981h11.223h25.224h11.224h6.982h11.223h14.411l24.076-42.546l-193.655-32.003
		L891.408,875.482z"/>
	<polygon fill="#3B3B3B" points="955.589,990.672 949.704,990.672 949.704,1028.728 955.589,1018.327 	"/>
	<polygon fill="#242424" points="846.285,1094.091 846.285,1011.284 840.399,1009.721 840.399,1094.091 791.633,1094.091 
		791.633,996.77 785.747,995.207 785.747,1094.091 769.774,1094.091 772.012,1115.118 869.61,1115.118 889.957,1094.091 	"/>
	<polygon fill="#242424" points="895.052,1024.236 895.052,1088.826 900.937,1082.743 900.937,1025.798 	"/>
	<polygon fill="#3B3B3B" points="938.327,1094.091 900.938,1094.091 900.937,1094.091 900.937,1082.743 895.052,1088.826 
		895.052,1094.091 889.957,1094.091 869.61,1115.118 935.934,1115.118 	"/>
	<polygon fill="#2E2E2E" points="736.981,1094.091 736.981,1001.337 731.095,1004.998 731.095,1094.091 682.329,1094.091 
		682.329,1035.333 676.443,1038.995 676.443,1094.091 627.677,1094.091 627.676,1094.091 627.676,1069.33 621.791,1072.991 
		621.791,1094.091 618.341,1094.091 648.038,1115.118 772.012,1115.118 769.774,1094.091 	"/>
	<polygon fill="#3B3B3B" points="602.935,1094.091 600.527,1115.118 648.038,1115.118 618.341,1094.091 	"/>
	<polygon fill="#1C1C1C" points="676.443,891.769 676.443,1038.995 682.329,1035.333 682.329,898.671 	"/>
	<polygon fill="#2E2E2E" points="785.747,990.672 785.747,995.207 791.633,996.77 791.633,990.672 	"/>
	<polygon fill="#2E2E2E" points="840.399,990.672 840.399,1009.721 846.285,1011.284 846.285,990.672 	"/>
	<polygon fill="#2E2E2E" points="823.65,875.482 828.629,875.482 839.852,875.482 846.833,875.482 858.056,875.482 891.408,875.482 
		866.844,800.933 	"/>
	<polygon fill="#2E2E2E" points="895.052,1024.236 900.937,1025.798 900.937,904.402 895.052,886.54 	"/>
	<polygon fill="#2E2E2E" points="971.701,633.545 821.827,563.675 866.844,800.933 	"/>
	<path fill="#2E2E2E" d="M1131.8,572.345c-19.382-28.958-52.384-48.03-89.846-48.03h-82.391c-1.934,0-3.8-0.273-5.588-0.741
		l17.726,109.971L1131.8,572.345z"/>
	<polygon fill="#2E2E2E" points="1060.5,832.936 1082.552,704.904 866.844,800.933 	"/>
	<polygon fill="#242424" points="1082.552,704.904 971.701,633.545 866.844,800.933 	"/>
	<g>
		<path fill="#242424" d="M971.701,633.545l-17.726-109.971c-9.476-2.475-16.485-11.059-16.505-21.31
			c-3.681-60.621-19.757-118.206-45.725-170.176l-69.917,231.586L971.701,633.545z"/>
		<path fill="#242424" d="M971.701,633.545l-17.726-109.971c-9.476-2.475-16.485-11.059-16.505-21.31
			c-3.681-60.621-19.757-118.206-45.725-170.176l-69.917,231.586L971.701,633.545z"/>
		<path fill="#242424" d="M971.701,633.545l-17.726-109.971c-9.476-2.475-16.485-11.059-16.505-21.31
			c-3.681-60.621-19.757-118.206-45.725-170.176l-69.917,231.586L971.701,633.545z"/>
		<path fill="#242424" d="M971.701,633.545l-17.726-109.971c-9.476-2.475-16.485-11.059-16.505-21.31
			c-3.681-60.621-19.757-118.206-45.725-170.176l-69.917,231.586L971.701,633.545z"/>
		<path fill="#242424" d="M971.701,633.545l-17.726-109.971c-9.476-2.475-16.485-11.059-16.505-21.31
			c-3.681-60.621-19.757-118.206-45.725-170.176l-69.917,231.586L971.701,633.545z"/>
	</g>
	<polygon fill="#242424" points="323.518,315.759 222.594,527.104 438.227,440.863 	"/>
	<polygon fill="#1C1C1C" points="1150,893.758 1150,780.924 1060.5,832.936 	"/>
	<path fill="#1C1C1C" d="M135.806,1094.091v-35.434l-16.532-37.537l-67.599,60.297c5.325,19.416,23.052,33.701,44.158,33.701h64.84
		l-9.261-21.027H135.806z"/>
	<polygon fill="#242424" points="184.573,990.672 184.573,1040.495 190.459,1042.24 190.459,990.672 	"/>
	<polygon fill="#242424" points="239.225,990.672 239.225,1056.71 245.111,1058.456 245.111,990.672 	"/>
	<polygon fill="#242424" points="135.806,991.781 119.274,1021.12 135.806,1026.025 	"/>
	<polygon fill="#3B3B3B" points="70.988,860.396 50,879.154 50,1008.328 119.274,1021.12 	"/>
	<path fill="#2E2E2E" d="M50,1008.328v60.956c0,4.207,0.614,8.263,1.675,12.133l67.599-60.297L50,1008.328z"/>
	<path fill="#2E2E2E" d="M135.806,876.03c0-0.301,0.244-0.546,0.546-0.547l-65.364-15.087l48.286,160.724l16.532-29.339V876.03z"/>
	<polygon fill="#1C1C1C" points="136.354,875.482 172.802,875.482 172.802,990.672 184.573,990.672 190.459,990.672 202.23,990.672 
		202.23,875.482 194.739,875.482 207.179,687.803 70.988,860.396 136.352,875.483 	"/>
	<polygon fill="#2E2E2E" points="50,847.862 50,879.154 70.988,860.396 	"/>
	<polygon fill="#2E2E2E" points="207.179,687.803 50,680.263 50,795.975 70.988,860.396 	"/>
	<polygon fill="#242424" points="50,795.975 50,847.862 70.988,860.396 	"/>
	<polygon fill="#2E2E2E" points="202.23,875.482 227.454,875.482 230.782,875.482 337.021,837.287 207.179,687.803 194.739,875.482 
			"/>
	<polygon fill="#3B3B3B" points="50,609.317 50,680.263 207.179,687.803 	"/>
	<path fill="#3B3B3B" d="M238.677,875.482h6.981h11.224h36.447c0.303,0,0.548,0.245,0.548,0.548v165.323l5.886-27.839V876.03
		c0-0.303,0.245-0.548,0.548-0.548h28.635l8.075-38.195l-106.24,38.195H238.677z"/>
	<polygon fill="#2E2E2E" points="245.111,1094.091 245.111,1094.091 245.111,1058.456 239.225,1056.71 239.225,1094.091 
		190.459,1094.091 190.459,1042.24 184.573,1040.495 184.573,1094.091 151.412,1094.091 160.673,1115.118 254.161,1115.118 
		270.119,1094.091 	"/>
	<polygon fill="#2E2E2E" points="135.806,1026.025 119.274,1021.12 135.806,1058.657 	"/>
	<polygon fill="#1C1C1C" points="381.324,573.051 207.179,687.803 337.021,837.287 	"/>
	<polygon fill="#242424" points="381.324,573.051 222.594,527.104 207.179,687.803 	"/>
	<polygon fill="#2E2E2E" points="222.594,527.104 50,559.442 50,609.317 207.179,687.803 	"/>
	<polygon fill="#2E2E2E" points="293.877,1066.899 299.763,1062.999 299.763,1013.514 293.877,1041.353 	"/>
	<polygon fill="#2E2E2E" points="408.897,990.672 403.182,990.672 403.182,994.46 	"/>
	<polygon fill="#2E2E2E" points="336.758,875.482 347.982,875.482 354.963,875.482 366.186,875.482 372.273,875.482 
		337.021,837.287 328.946,875.482 	"/>
	<polygon fill="#2E2E2E" points="348.529,990.672 348.529,1030.68 354.415,1026.78 354.415,990.672 	"/>
	<polygon fill="#242424" points="299.763,1094.091 299.763,1082.936 293.877,1077.192 293.877,1094.091 270.119,1094.091 
		254.161,1115.118 332.739,1115.118 311.193,1094.091 	"/>
	<polygon fill="#1C1C1C" points="299.763,1062.999 293.877,1066.899 293.877,1077.192 299.763,1082.936 	"/>
	<polygon fill="#1C1C1C" points="409.068,1094.091 409.067,1094.091 409.067,990.672 420.839,990.672 420.839,875.482 
		409.615,875.482 402.634,875.482 391.411,875.482 391.411,990.672 403.182,990.672 408.897,990.672 403.182,994.46 
		403.182,1094.091 354.415,1094.091 354.415,1026.78 348.529,1030.68 348.529,1094.091 311.193,1094.091 332.739,1115.118 
		415.995,1115.118 420.959,1094.091 	"/>
	<polygon fill="#2E2E2E" points="474.769,748.324 381.324,573.051 337.021,837.287 	"/>
	<polygon fill="#3B3B3B" points="556.648,580.744 381.324,573.051 474.769,748.324 	"/>
	<polygon fill="#1C1C1C" points="557.954,578.071 438.227,440.863 381.324,573.051 556.648,580.744 	"/>
	<polygon fill="#3B3B3B" points="660.914,407.562 438.227,440.863 557.954,578.071 	"/>
	<polygon fill="#2E2E2E" points="557.954,578.071 821.827,563.675 660.914,407.562 	"/>
	<path fill="#1C1C1C" d="M821.827,563.675l69.917-231.586c-7.281-14.572-15.35-28.693-24.135-42.322L660.914,407.562
		L821.827,563.675z"/>
	<path fill="#3B3B3B" d="M867.61,289.766c-34.87-54.104-81.144-100.335-135.437-135.114l-71.259,252.909L867.61,289.766z"/>
	<polygon fill="#3B3B3B" points="518.372,1094.091 518.372,1079.128 512.486,1068.721 512.486,1094.091 463.72,1094.091 
		463.719,1094.091 463.719,990.672 457.834,990.672 457.834,1094.091 420.959,1094.091 415.995,1115.118 538.727,1115.118 
		526.834,1094.091 	"/>
	<polygon fill="#242424" points="627.977,875.482 632.071,839.738 579.473,875.482 584.795,875.482 610.019,875.482 
		621.243,875.482 	"/>
	<polygon fill="#242424" points="512.486,921.004 512.486,1068.721 518.372,1079.128 518.372,917.005 	"/>
	<polygon fill="#242424" points="573.024,990.672 567.139,990.672 567.139,1094.091 526.834,1094.091 538.727,1115.118 
		600.527,1115.118 602.935,1094.091 573.024,1094.091 	"/>
	<path fill="#242424" d="M632.071,839.738l30.482,35.744h13.342c0.303,0,0.547,0.245,0.547,0.548v15.739l5.886,6.902V876.03
		c0-0.303,0.245-0.548,0.547-0.548h36.448h11.223h6.981h11.224h25.224h11.224h6.981h11.223h20.246l43.194-74.549L632.071,839.738z"
		/>
	<polygon fill="#242424" points="474.769,748.324 632.071,839.738 687.188,717.239 	"/>
	<polygon fill="#2E2E2E" points="557.954,578.071 556.648,580.744 474.769,748.324 687.188,717.239 	"/>
	<polygon fill="#3B3B3B" points="557.954,578.071 687.188,717.239 821.827,563.675 	"/>
	<polygon fill="#2E2E2E" points="687.188,717.239 632.071,839.738 866.844,800.933 	"/>
	<polygon fill="#242424" points="866.844,800.933 821.827,563.675 687.188,717.239 	"/>
	<polygon fill="#242424" points="457.286,875.482 461.302,875.482 474.769,748.324 337.021,837.287 372.273,875.482 
		391.411,875.482 402.634,875.482 409.615,875.482 420.839,875.482 446.063,875.482 	"/>
	<path fill="#1C1C1C" d="M632.071,839.738l-157.302-91.414l-13.467,127.158h-4.016h-11.224v115.19h11.771h5.885h11.771v-115.19
		h36.448c0.303,0,0.548,0.245,0.548,0.548v44.974l5.885-4V876.03c0-0.303,0.245-0.548,0.548-0.548h36.448v115.19h11.771h5.885
		h11.771v-115.19h-5.322L632.071,839.738z"/>
	<path fill="#FCFCFC" d="M172.802,990.672v-115.19h-36.447c0,0-0.001,0.001-0.002,0.001c-0.302,0.001-0.546,0.246-0.546,0.547
		v115.751v34.244v32.632v35.434h15.606h33.161v-53.596v-49.822H172.802z"/>
	<polygon fill="#FCFCFC" points="227.454,990.672 227.454,875.482 202.23,875.482 202.23,990.672 190.459,990.672 190.459,1042.24 
		190.459,1094.091 239.225,1094.091 239.225,1056.71 239.225,990.672 	"/>
	<path fill="#FCFCFC" d="M293.877,1066.899v-25.546V876.03c0-0.303-0.245-0.548-0.548-0.548h-36.447v115.19h-11.771v67.784v35.635
		l0,0h25.008h23.759v-16.899V1066.899z"/>
	<path fill="#FCFCFC" d="M336.758,990.672v-115.19h-7.812h-28.635c-0.303,0-0.548,0.245-0.548,0.548v137.484v49.484v19.937v11.155
		h11.43h37.336v-63.411v-40.008H336.758z"/>
	<polygon fill="#FCFCFC" points="366.186,875.482 366.186,990.672 354.415,990.672 354.415,1026.78 354.415,1094.091 
		403.182,1094.091 403.182,994.46 403.182,990.672 391.411,990.672 391.411,875.482 372.273,875.482 	"/>
	<polygon fill="#FCFCFC" points="446.063,875.482 420.839,875.482 420.839,990.672 409.067,990.672 409.067,1094.091 
		409.068,1094.091 420.959,1094.091 457.834,1094.091 457.834,990.672 446.063,990.672 	"/>
	<path fill="#FCFCFC" d="M512.486,876.03c0-0.303-0.245-0.548-0.548-0.548h-36.448v115.19h-11.771v103.419h0.001h48.766v-25.37
		V921.004V876.03z"/>
	<path fill="#FCFCFC" d="M555.367,875.482H518.92c-0.303,0-0.548,0.245-0.548,0.548v40.975v162.124v14.963h8.463h40.304V990.672
		h-11.771V875.482z"/>
	<polygon fill="#FCFCFC" points="621.791,1094.091 621.791,1072.991 621.791,990.672 610.019,990.672 610.019,875.482 
		584.795,875.482 584.795,990.672 573.024,990.672 573.024,1094.091 602.935,1094.091 602.935,1094.091 618.341,1094.091 	"/>
	<path fill="#FCFCFC" d="M676.443,876.03c0-0.303-0.245-0.548-0.547-0.548h-13.342h-23.106v115.19h-11.771v78.657v24.761h0h48.766
		v-55.096V891.769V876.03z"/>
	<path fill="#FCFCFC" d="M895.052,886.54v-10.51c0-0.303-0.245-0.548-0.548-0.548h-3.096h-33.352v115.19h-11.771v20.612v82.807
		h43.672h5.094v-5.265v-64.59V886.54z"/>
	<path fill="#FCFCFC" d="M949.704,1040.407v-11.679v-38.055h-11.771v-115.19h-36.447c-0.303,0-0.548,0.245-0.548,0.548v28.372
		v121.396v56.945v11.348h0h37.389h11.377V1040.407z"/>
	<polygon fill="#FCFCFC" points="1004.356,990.672 992.585,990.672 992.585,875.482 967.361,875.482 967.361,990.672 
		955.589,990.672 955.589,1018.327 955.589,1043.948 955.589,1094.091 955.59,1094.091 1004.356,1094.091 1004.356,1073.285 	"/>
	<path fill="#FCFCFC" d="M1022.013,990.672h-11.771v86.154v17.265h28.699h20.067V876.03c0-0.303-0.245-0.548-0.548-0.548h-22.037
		h-14.411V990.672z"/>
	<path fill="#FCFCFC" d="M719.324,990.672v-115.19h-36.448c-0.303,0-0.547,0.245-0.547,0.548v22.641v136.662v58.757h48.767v-89.093
		v-14.325H719.324z"/>
	<polygon fill="#FCFCFC" points="773.976,990.672 773.976,875.482 748.752,875.482 748.752,990.672 736.981,990.672 
		736.981,1001.337 736.981,1094.091 769.774,1094.091 785.747,1094.091 785.747,995.207 785.747,990.672 	"/>
	<polygon fill="#FCFCFC" points="828.629,990.672 828.629,875.482 823.65,875.482 803.404,875.482 803.404,990.672 791.633,990.672 
		791.633,996.77 791.633,1094.091 840.399,1094.091 840.399,1009.721 840.399,990.672 	"/>
	<polygon fill="#1C1C1C" points="238.677,875.482 230.782,875.482 227.454,875.482 227.454,990.672 239.225,990.672 
		245.111,990.672 256.882,990.672 256.882,875.482 245.659,875.482 	"/>
	<polygon fill="#1C1C1C" points="347.982,875.482 336.758,875.482 336.758,990.672 348.529,990.672 354.415,990.672 
		366.186,990.672 366.186,875.482 354.963,875.482 	"/>
	<polygon fill="#1C1C1C" points="639.447,990.672 639.447,875.482 662.553,875.482 632.071,839.738 627.977,875.482 
		627.977,875.482 621.243,875.482 610.019,875.482 610.019,990.672 621.791,990.672 621.791,1072.991 627.676,1069.33 
		627.676,990.672 	"/>
	<polygon fill="#1C1C1C" points="748.752,990.672 748.752,875.482 737.529,875.482 730.547,875.482 719.324,875.482 
		719.324,990.672 731.095,990.672 731.095,1004.998 736.981,1001.337 736.981,990.672 	"/>
	<polygon fill="#1C1C1C" points="785.199,875.482 773.976,875.482 773.976,990.672 785.747,990.672 791.633,990.672 
		803.404,990.672 803.404,875.482 792.181,875.482 	"/>
	<polygon fill="#1C1C1C" points="839.852,875.482 828.629,875.482 828.629,990.672 840.399,990.672 846.285,990.672 
		858.056,990.672 858.056,875.482 846.833,875.482 	"/>
	<polygon fill="#1C1C1C" points="967.361,990.672 967.361,875.482 956.137,875.482 949.156,875.482 937.932,875.482 
		937.932,990.672 949.704,990.672 955.589,990.672 	"/>
</g>
</svg>
