<svg version="1.1" id="Capa_1" xmlns="http://www.w3.org/2000/svg" xmlns:xlink="http://www.w3.org/1999/xlink" x="0px" y="0px" viewBox="0 0 1200 1200" enable-background="new 0 0 1200 1200" xml:space="preserve">
<path fill="#26303D" d="M902.471,462.347c-37.715-0.081-81.138,0.973-127.645,2.81l0.062-0.007&#10;&#9;c50.665-24.94,124.2-65.188,186.933-112.725c108.048-81.875-46.916-126.273-153.978-152.577&#10;&#9;c-71.691-17.613-33.47-76.965-0.389-114.258l0.003-0.001c0,0,25.973-6.288,31.388-31.43c-13.151,0-253.062,0-253.062,0&#10;&#9;L238.406,502.872v0c-52.027,4.694-84.197,7.848-84.197,7.848c-17.985,18.289-15.038,78.615-15.038,96.927&#10;&#9;s-20.329,44.111-61.343,44.111s-24.572,83.673-24.572,83.673l22.351,9.807v0v90.68v118.905l22.883,9.808l25.748-3.016V827.817&#10;&#9;v-61.24l314.065,137.813v0v60.24v169.839l26.399,11.371l29.853-5.055V978.142v-80.297l73.658-8.571l271.853-31.632&#10;&#9;c10.535-1.226,18.489-10.294,18.489-21.077v-12.043l1.282-0.149c10.461-1.217,18.359-10.221,18.359-20.929v-2.05l34.907-4.048&#10;&#9;c25.135-2.915,43.855-24.14,43.855-49.867V727.71l87.804-10.217v18.959v252.846l26.354,11.371l29.853-5.055V754.68v-43.727v0&#10;&#9;l23.046-2.681c14.806-1.723,25.985-14.467,25.985-29.622V527.018C1149.999,527.018,1152.079,462.883,902.471,462.347z&#10;&#9; M271.742,771.536c0,3.88-3.962,6.501-7.533,4.982l-40.547-17.049c-1.997-0.85-3.294-2.811-3.294-4.982V746&#10;&#9;c0-3.88,3.962-6.501,7.533-4.982l40.546,17.049c1.998,0.85,3.295,2.811,3.295,4.982V771.536z M956.958,549.48v41.091L556.233,637.15&#10;&#9;l-27.121-8.529L306.618,558.65l4.727-0.448c95.102-8.283,243.727-20.256,386.245-28.561&#10;&#9;c-22.206-90.183-13.352-134.865-13.352-134.865l-83.356-257.629c-1.099-3.395-0.449-7.113,1.735-9.934v0&#10;&#9;c5.312-6.862,16.138-4.972,18.811,3.284l128.291,396.263c77.295-4.023,150.489-6.654,209.548-6.654&#10;&#9;c53.78,0,77.679,2.867,102.599,17.167L956.958,549.48z" style="fill: rgb(255, 255, 255);"/>
</svg>