<?xml version="1.0" encoding="utf-8"?>
<!-- Designed by Vexels.com - 2019 All Rights Reserved - https://vexels.com/terms-and-conditions/  -->
<svg version="1.1" id="Capa_1" xmlns="http://www.w3.org/2000/svg" xmlns:xlink="http://www.w3.org/1999/xlink" x="0px" y="0px"
	 viewBox="0 0 1200 1200" enable-background="new 0 0 1200 1200" xml:space="preserve">
<g>
	<g>
		<g>
			<polygon fill="#AE9049" points="1071.115,714.427 1071.115,1000.669 1100.968,995.615 1100.968,710.953 			"/>
			<polygon fill="#FFCC63" points="1044.762,717.493 1044.762,989.298 1071.115,1000.669 1071.115,714.427 			"/>
		</g>
		<g>
			<path fill="#D8B159" d="M956.958,549.48l193.042-22.462v151.632c0,15.155-11.18,27.9-25.986,29.622L956.958,727.71V549.48z"/>
			<path fill="#FFCC63" d="M411.422,892.596l26.88,11.795c0,0-18.947-96.196,29.267-96.196c48.214,0,72.111-30.328,72.111-51.854
				c0-21.526-4.588-97.691,16.554-119.191l-27.121-8.529c-21.141,21.5-16.066,92.416-16.066,113.942s-23.898,51.854-72.111,51.854
				C392.72,794.416,411.422,892.596,411.422,892.596z"/>
			<path fill="#FFCC63" d="M75.606,745.238l-22.351-9.808c0,0-16.442-83.673,24.572-83.673c41.014,0,61.343-25.799,61.343-44.11
				s-2.947-78.638,15.038-96.927c0,0,22.218,6.987,22.217,6.987c-17.984,18.289-14.598,83.349-14.598,101.661
				c0,18.312-20.329,44.111-61.343,44.111C59.471,663.479,75.606,745.238,75.606,745.238z"/>
			<path fill="#F9D18A" d="M120.002,661.315c20.963-4.935,34.009-17.553,39.221-29.935l346.621,133.037
				c-10.371,15.838-31.963,30-64.91,30L120.002,661.315z"/>
			<path fill="#EABE5F" d="M159.223,631.379c1.738-4.128,2.605-8.229,2.605-12.011c0-18.312-3.386-83.371,14.598-101.661
				l352.686,110.913c-21.141,21.5-16.066,92.416-16.066,113.942c0,6.816-2.396,14.515-7.202,21.854L159.223,631.379z"/>
			<path fill="#EABE5F" d="M120.002,661.315c-5.882,1.385-12.387,2.164-19.517,2.164c-41.014,0-24.878,81.759-24.878,81.759
				l335.815,147.358c0,0-18.701-98.18,29.513-98.18L120.002,661.315z"/>
			<path fill="#EABE5F" d="M438.301,904.391l401.763-46.748c10.535-1.226,18.489-10.294,18.489-21.077v-12.043l1.282-0.149
				c10.461-1.217,18.359-10.221,18.359-20.929v-2.05l34.907-4.048c25.135-2.915,43.855-24.14,43.855-49.867v-156.91L556.234,637.15
				c-21.141,21.5-16.554,97.665-16.554,119.191c0,21.526-23.897,51.854-72.111,51.854
				C419.355,808.195,438.301,904.391,438.301,904.391z"/>
			<path fill="#E06B4E" d="M1149.999,527.018l-88.134,10.255c-24.921-14.3-48.82-17.168-102.6-17.168
				c-181.07,0-494.972,24.72-652.739,38.516c0,0-152.318-47.901-152.318-47.901c0,0,498.653-48.91,748.262-48.373
				S1149.999,527.018,1149.999,527.018z"/>
			<path fill="#3A4756" d="M556.234,637.15l400.724-46.579V549.48l104.908-12.207c-24.921-14.3-48.82-17.168-102.6-17.168
				c-181.07,0-494.972,24.72-652.739,38.516L556.234,637.15z"/>
		</g>
		<g>
			<path fill="#CE6246" d="M807.455,85.587c-33.081,37.294-71.306,96.647,0.387,114.261
				c107.062,26.303,262.026,70.702,153.979,152.577c-62.733,47.537-136.268,87.786-186.933,112.725l0,0
				c-170.79,6.746-383.487,24.143-510.34,35.385L585.781,85.589L807.455,85.587z"/>
			<path fill="#EABE5F" d="M585.781,85.589h221.675c0,0,25.973-6.288,31.387-31.43c-13.151,0-253.062,0-253.062,0V85.589"/>
			<path fill="#FFCC63" d="M264.547,500.534c-9.179,0.813-17.909,1.595-26.141,2.337L585.781,54.159v31.43
				C585.781,85.589,264.547,500.535,264.547,500.534z"/>
			<path fill="#BF5C40" d="M279.519,481.195l-14.972,19.339c126.852-11.242,339.549-28.638,510.34-35.385l0,0
				c8.721-4.293,18.12-9.04,28.024-14.202C492.043,456.642,279.519,481.195,279.519,481.195z"/>
			<path fill="#26303D" d="M777.144,611.472L621.427,130.497c-2.673-8.256-13.499-10.146-18.811-3.284v0
				c-2.184,2.821-2.834,6.539-1.735,9.934l83.357,257.629c0,0-14.618,73.653,40.71,222.763L777.144,611.472z"/>
		</g>
		<g>
			<g>
				<polygon fill="#FFCC63" points="75.606,745.238 75.606,954.824 98.49,964.631 98.49,755.279 				"/>
				<polygon fill="#AE9049" points="98.49,964.631 124.237,961.615 124.237,766.578 98.49,755.279 				"/>
			</g>
			<g>
				<polygon fill="#FFCC63" points="438.301,904.391 438.301,1134.47 464.701,1145.841 464.701,901.254 				"/>
				<polygon fill="#AE9049" points="464.701,1145.841 494.553,1140.787 494.553,897.846 464.701,901.254 				"/>
			</g>
		</g>
	</g>
	<g>
		<g>
			<path fill="#E7C381" d="M474.222,752.279c-9.114,19.11-35.403,26.808-64.57,29.163l31.283,12.974
				c32.947,0,54.539-14.162,64.91-30L474.222,752.279z"/>
			<path fill="#D8B159" d="M373.292,875.865c-2.864-17.464-15.105-84.796,26.731-92.889c3.186-0.616,6.798-1.305,9.629-1.534
				l31.283,12.974c-48.214,0-29.513,98.18-29.513,98.18L373.292,875.865z"/>
			<path fill="#D8B159" d="M529.112,628.621c-21.141,21.5-16.066,92.416-16.066,113.942c0,6.816-2.396,14.515-7.202,21.854
				l-31.622-12.137c4.074-6.803,6.105-14.634,6.105-20.91c0-19.864-2.783-86.903,13.228-113.93L529.112,628.621z"/>
		</g>
		<polygon fill="#C7A351" points="975.438,547.329 975.438,725.56 956.958,727.71 956.958,549.48 		"/>
		<path fill="#D8B159" d="M878.195,801.396v2.05c0,10.708-7.899,19.711-18.359,20.929l-1.282,0.149V602.009L878.195,600V801.396z"/>
	</g>
	<path fill="#AE9049" d="M264.209,776.518l-40.547-17.049c-1.998-0.85-3.294-2.811-3.294-4.982V746c0-3.88,3.962-6.501,7.533-4.982
		l40.547,17.049c1.998,0.85,3.294,2.811,3.294,4.982v8.487C271.742,775.416,267.779,778.037,264.209,776.518z"/>
</g>
</svg>
